<?xml version="1.0" encoding="UTF-8"?>
<svg version="1.1" xmlns="http://www.w3.org/2000/svg" width="594" height="731">
<path d="M0 0 C20.07130058 -0.07013009 40.14257624 -0.12300778 60.213974 -0.15543652 C69.53380432 -0.17089501 78.85355844 -0.19196507 88.17333984 -0.22631836 C96.29795509 -0.25625188 104.42251513 -0.2755824 112.54718399 -0.28226548 C116.84778935 -0.28617105 121.14823682 -0.29532843 125.4487915 -0.31719017 C129.5002245 -0.33761781 133.5514352 -0.34382117 137.60291481 -0.33932304 C139.08634463 -0.34014544 140.56978221 -0.3460737 142.05316734 -0.35761642 C158.82201665 -0.4816528 158.82201665 -0.4816528 165.4609375 5.05078125 C170.9242465 11.50640556 173.36216216 16.22611067 173.30184937 24.72705078 C172.61088913 32.21912473 170.31460636 39.47484405 168.36328125 46.71875 C167.88097326 48.54436242 167.39972539 50.37025521 166.91947937 52.19641113 C165.65494356 56.99277917 164.37554232 61.78505951 163.09307861 66.57666016 C161.80582163 71.39755785 160.53370093 76.2224437 159.25976562 81.046875 C154.93651209 97.39213288 150.55697981 113.71818631 146 130 C147.27040634 129.99111755 148.54081268 129.98223511 149.84971619 129.9730835 C161.84052103 129.89188581 173.83126985 129.83198076 185.82228756 129.79275131 C191.98654098 129.77190482 198.15057189 129.74364032 204.31469727 129.69824219 C210.2669397 129.65468046 216.21896852 129.6308408 222.17135811 129.62049103 C224.43868941 129.61311826 226.70600943 129.59872099 228.97324944 129.57707977 C232.15681817 129.54790923 235.33951181 129.54404979 238.52319336 129.54589844 C239.45396194 129.53151733 240.38473053 129.51713623 241.34370422 129.50231934 C249.89426086 129.55580623 257.17867127 132.33211833 263.46296692 138.23362732 C271.14256533 147.05909308 272.96270752 160.18275505 275.76953125 171.18359375 C276.32293783 173.31757169 276.87739192 175.45127822 277.43281555 177.58473206 C278.61811828 182.14592631 279.79656017 186.70881558 280.96954346 191.27319336 C282.83480672 198.53076596 284.71551512 205.78427878 286.59912109 213.03710938 C288.53141971 220.47970693 290.46307522 227.92246462 292.38964844 235.36654663 C297.75620691 256.09956549 303.19807272 276.81208147 308.67468262 297.51626587 C311.12116511 306.76515208 313.56242436 316.01541775 316.00390625 325.265625 C316.2471249 326.18696543 316.49034355 327.10830585 316.74093246 328.05756569 C322.59442766 350.2326423 328.4149479 372.41636345 334.23593521 394.59999084 C342.83397295 427.36680836 351.46164984 460.12552792 360.13204575 492.87327194 C369.46079112 528.10901257 378.71372196 563.36445799 387.94414806 598.62607384 C388.76994207 601.78062671 389.59592082 604.93513117 390.42192078 608.08963013 C391.47586077 612.11471322 392.52890448 616.14002931 393.58137512 620.16549683 C395.95944479 629.25524463 398.35174397 638.34068628 400.78613281 647.41552734 C401.21581958 649.02136959 401.64547747 650.62721957 402.07510376 652.233078 C402.85886808 655.16180109 403.64902307 658.08869015 404.44320679 661.01460266 C404.78373077 662.28555283 405.12425476 663.55650299 405.47509766 664.8659668 C405.77179352 665.96273239 406.06848938 667.05949799 406.37417603 668.1894989 C407 671 407 671 407 675 C393.05678142 675.09360589 379.11361185 675.16379227 365.17014313 675.20724869 C358.695349 675.22810747 352.22076624 675.25639465 345.74609375 675.30175781 C339.49559964 675.34527539 333.24530862 675.36914996 326.99467468 675.37950897 C324.61208398 675.38688963 322.22950418 675.40130233 319.84700012 675.42292023 C316.50517918 675.4520318 313.16419334 675.45595262 309.82226562 675.45410156 C308.84114807 675.46848267 307.86003052 675.48286377 306.84918213 675.49768066 C299.75905204 675.45529174 294.52280723 673.90683504 289.01171875 669.359375 C288.57472656 668.82828125 288.13773437 668.2971875 287.6875 667.75 C287.01267578 666.96882812 287.01267578 666.96882812 286.32421875 666.171875 C282.87398597 660.51308613 281.29770977 653.81742397 279.65356445 647.44799805 C279.43754074 646.62533699 279.22151703 645.80267593 278.99894714 644.95508575 C278.28308625 642.22498587 277.57320882 639.49336697 276.86328125 636.76171875 C276.35131582 634.80477386 275.83895135 632.84793332 275.32621765 630.89118958 C274.22722001 626.69402916 273.1307871 622.49621048 272.03637695 618.29785156 C270.28958903 611.59718802 268.53698759 604.89805401 266.78320312 598.19921875 C266.18447142 595.91208078 265.58574709 593.62494088 264.98703003 591.33779907 C264.68887264 590.19883808 264.39071526 589.05987709 264.0835228 587.88640213 C263.17050228 584.39779808 262.25804184 580.90904796 261.34573364 577.42025757 C256.07845516 557.27991574 250.77446477 537.14937727 245.45834351 517.0218811 C242.99141847 507.68168789 240.52660048 498.34093874 238.0625 489 C237.81606939 488.06584574 237.56963879 487.13169147 237.31574059 486.16922951 C230.91590639 461.9064008 224.54718002 437.63540598 218.17712402 413.36474609 C209.65458447 380.8933519 201.11014355 348.42782386 192.53964233 315.96905518 C186.94190037 294.76875221 181.35706926 273.5651591 175.79996109 252.35416412 C174.89942038 248.91709768 173.99857223 245.48011195 173.09762573 242.04315186 C172.50322896 239.77551424 171.90883807 237.50787509 171.31445312 235.24023438 C170.87607966 233.56781363 170.87607966 233.56781363 170.42885017 231.8616066 C168.71131445 225.30800677 166.9961356 218.7537957 165.28271961 212.19911766 C164.21821033 208.12890357 163.15160954 204.05923952 162.0845089 199.98970413 C161.59324105 198.11433274 161.10285607 196.23872979 160.61347389 194.36286545 C159.30786719 189.35902732 157.98780475 184.35959883 156.63812637 179.36745453 C156.2043336 177.75807947 155.77500726 176.14749527 155.3496666 174.53586578 C154.72028311 172.16294929 154.07126314 169.79626628 153.41674805 167.43017578 C153.2322878 166.7216641 153.04782755 166.01315243 152.8577776 165.2831707 C151.99678351 162.24559282 151.27002097 160.26232289 148.98274231 158.04025269 C146.58167154 156.78052251 145.39178221 156.82817326 142.75 157.3125 C141.5125 157.539375 140.275 157.76625 139 158 C136.44949441 167.22053631 134.02405637 176.47339145 131.59829521 185.72730064 C130.84059569 188.61779142 130.08224503 191.50811073 129.32374573 194.39839172 C128.22607036 198.5813382 127.12865191 202.76435195 126.03143311 206.94741821 C123.10473386 218.10472701 120.17561127 229.26139965 117.24609375 240.41796875 C116.94650002 241.55894201 116.64690628 242.69991528 116.33823395 243.87546349 C110.11902246 267.55913101 103.88358072 291.23850567 97.63900375 314.91549683 C96.88514484 317.77403208 96.13146652 320.6326149 95.37783813 323.49121094 C89.61837232 345.33637482 83.83770445 367.17559809 78 389 C79.37943031 388.99000725 79.37943031 388.99000725 80.78672791 388.97981262 C89.4811376 388.9195375 98.17547644 388.87394246 106.87004757 388.84456348 C111.33931884 388.82895136 115.80841651 388.80779511 120.27758789 388.77368164 C124.5958939 388.74092848 128.9140336 388.72311354 133.2324543 388.71536827 C134.87457456 388.70985327 136.5166864 388.69908418 138.15873528 388.68280983 C156.89534226 388.50460724 156.89534226 388.50460724 164.3046875 393.578125 C164.82289063 394.12984375 165.34109375 394.6815625 165.875 395.25 C166.40867187 395.79140625 166.94234375 396.3328125 167.4921875 396.890625 C192.34041301 431.65239125 172 482.27044695 172 525 C70.03 525 -31.94 525 -137 525 C-138.27270496 521.18188511 -137.34679772 518.62176689 -136.32299805 514.87695312 C-136.13023285 514.14571983 -135.93746765 513.41448654 -135.73886108 512.66109467 C-135.08769157 510.19898143 -134.42462431 507.74022716 -133.76171875 505.28125 C-133.29324885 503.51891998 -132.82556071 501.756382 -132.3585968 499.99365234 C-131.34611534 496.17783276 -130.32847519 492.36343972 -129.30688477 488.55004883 C-127.66561942 482.42295228 -126.03583239 476.2928404 -124.40820312 470.16210938 C-122.6939855 463.70682619 -120.97927312 457.25167866 -119.26095581 450.79748535 C-115.29907234 435.91376622 -111.36551944 421.02282786 -107.45703125 406.125 C-107.05753549 404.60226471 -107.05753549 404.60226471 -106.6499691 403.04876709 C-105.30557674 397.92359509 -103.96178853 392.79826492 -102.61831665 387.67285156 C-99.89428792 377.28113732 -97.16601451 366.89053717 -94.4375 356.5 C-94.1680337 355.47376526 -93.89856739 354.44753052 -93.62093544 353.39019775 C-87.5193215 330.15448117 -81.39117537 306.92578344 -75.26037598 283.69775391 C-67.42541212 254.01253531 -59.61442154 224.32109908 -51.82024765 194.62514496 C-39.87839744 149.1266751 -27.90242445 103.63729097 -15.89003277 58.15739346 C-14.49831095 52.88789908 -13.10764901 47.61812615 -11.71777344 42.34814453 C-10.11280745 36.26265361 -8.50576707 30.177714 -6.89663696 24.09332275 C-6.34868455 22.0202331 -5.80144155 19.94695578 -5.25497437 17.87347412 C-4.53792049 15.1533827 -3.81821433 12.43400861 -3.09765625 9.71484375 C-2.89477997 8.94274063 -2.69190369 8.17063751 -2.48287964 7.37513733 C-1.1144168 2.2288336 -1.1144168 2.2288336 0 0 Z " fill="#14636F" transform="translate(182,49)"/>
<path d="M0 0 C19.25443565 -0.09357522 38.50882494 -0.16404372 57.76344109 -0.20724869 C66.7043507 -0.22784561 75.64511876 -0.25591112 84.5859375 -0.30175781 C92.38169424 -0.3417137 100.17734843 -0.36745366 107.97320473 -0.37635398 C112.09843467 -0.38155397 116.22337129 -0.39371542 120.34850693 -0.42292023 C124.23748238 -0.45022799 128.12604587 -0.4584143 132.01510811 -0.45243073 C133.43643119 -0.45352414 134.85776918 -0.46138639 136.27900887 -0.4768219 C145.98149207 -0.57695861 154.35230252 0.29326066 162.3125 6.25 C169.17781504 13.27497353 172.23229679 20.76511848 172.14291382 30.59350586 C171.91765464 34.38659528 171.03809165 37.90438166 170.05078125 41.5625 C169.84171646 42.37212189 169.63265167 43.18174377 169.41725159 44.01589966 C168.72628691 46.68016523 168.01968659 49.33999856 167.3125 52 C166.82289843 53.87201566 166.33414598 55.74425358 165.84619141 57.61669922 C164.52653209 62.66796812 163.19231429 67.715293 161.85565186 72.76208496 C160.6686323 77.25394511 159.49201097 81.74850903 158.31492615 86.24298096 C156.8398055 91.87160051 155.35762316 97.49835295 153.875 103.125 C153.44424667 104.763479 153.44424667 104.763479 153.00479126 106.43505859 C152.19178679 109.52280251 151.37402748 112.60924454 150.5546875 115.6953125 C150.31037491 116.6255423 150.06606232 117.55577209 149.81434631 118.51419067 C149.58927902 119.35787201 149.36421173 120.20155334 149.13232422 121.07080078 C148.93677948 121.8093631 148.74123474 122.54792542 148.5397644 123.30886841 C148 125 148 125 147 126 C144.69643567 126.09711942 142.38982342 126.1218657 140.08421326 126.12025452 C138.98649781 126.12153615 138.98649781 126.12153615 137.8666063 126.12284368 C135.39599121 126.12450066 132.9254429 126.11897359 130.45483398 126.11352539 C128.69116213 126.11324354 126.92749015 126.11340121 125.16381836 126.1139679 C120.36030157 126.11425595 115.55680953 126.10835792 110.75329852 126.10139394 C105.73910315 126.09516174 100.72490727 126.09455671 95.71070862 126.09336853 C86.2086324 126.09025482 76.70656762 126.08204089 67.20449644 126.07201904 C56.38968661 126.06085914 45.57487625 126.05534776 34.7600621 126.05032361 C12.50670167 126.03985831 -9.74664845 126.0222581 -32 126 C-31.49037263 121.59841102 -30.96471348 117.34137064 -29.83694458 113.04985046 C-29.48799133 111.70672791 -29.48799133 111.70672791 -29.13198853 110.33647156 C-28.87847626 109.38198624 -28.62496399 108.42750092 -28.36376953 107.4440918 C-28.09534241 106.41696075 -27.82691528 105.38982971 -27.550354 104.33157349 C-26.66605275 100.95282115 -25.7745001 97.57602855 -24.8828125 94.19921875 C-24.26322983 91.83815141 -23.64408584 89.47696892 -23.02536011 87.11567688 C-21.39695854 80.90615274 -19.76232515 74.69828534 -18.12646484 68.49072266 C-16.46963343 62.19864081 -14.81920355 55.9048805 -13.16796875 49.61132812 C-10.74671565 40.38810978 -8.32389424 31.16530627 -5.89501953 21.9440918 C-5.64555573 20.99567917 -5.39609192 20.04726654 -5.1390686 19.07011414 C-3.460807 12.70378552 -1.74153655 6.34930296 0 0 Z " fill="#13616E" transform="translate(37,598)"/>
<path d="M0 0 C1.27423828 -0.00193359 1.27423828 -0.00193359 2.57421875 -0.00390625 C3.91419922 0.00189453 3.91419922 0.00189453 5.28125 0.0078125 C6.17457031 0.00394531 7.06789063 0.00007813 7.98828125 -0.00390625 C8.83777344 -0.00261719 9.68726563 -0.00132813 10.5625 0 C11.34689453 0.00112793 12.13128906 0.00225586 12.93945312 0.00341797 C14.78125 0.1328125 14.78125 0.1328125 15.78125 1.1328125 C15.87985131 2.53629985 15.91203937 3.94461727 15.9140625 5.3515625 C15.91599609 6.62580078 15.91599609 6.62580078 15.91796875 7.92578125 C15.91410156 8.81910156 15.91023438 9.71242188 15.90625 10.6328125 C15.91205078 11.97279297 15.91205078 11.97279297 15.91796875 13.33984375 C15.91667969 14.18933594 15.91539062 15.03882812 15.9140625 15.9140625 C15.91293457 16.69845703 15.91180664 17.48285156 15.91064453 18.29101562 C15.78125 20.1328125 15.78125 20.1328125 14.78125 21.1328125 C11.79258358 21.23292546 8.83214547 21.27155225 5.84375 21.2578125 C5.00650391 21.26167969 4.16925781 21.26554687 3.30664062 21.26953125 C2.50548828 21.26824219 1.70433594 21.26695313 0.87890625 21.265625 C0.14164307 21.26449707 -0.59562012 21.26336914 -1.35522461 21.26220703 C-3.21875 21.1328125 -3.21875 21.1328125 -5.21875 20.1328125 C-5.24763514 16.98699827 -5.26550923 13.84121781 -5.28125 10.6953125 C-5.28962891 9.79748047 -5.29800781 8.89964844 -5.30664062 7.97460938 C-5.30986328 7.12060547 -5.31308594 6.26660156 -5.31640625 5.38671875 C-5.32426147 4.20057983 -5.32426147 4.20057983 -5.33227539 2.99047852 C-5.11296074 -0.59826377 -3.09723564 0.00445371 0 0 Z " fill="#197079" transform="translate(414.21875,64.8671875)"/>
<path d="M0 0 C1.01513672 -0.01740234 1.01513672 -0.01740234 2.05078125 -0.03515625 C4.78645108 -0.01896885 7.00272651 0.11490304 9.44921875 1.39453125 C11.14961362 4.5993647 10.89060836 7.90387769 10.8125 11.4375 C10.81733398 12.53674805 10.81733398 12.53674805 10.82226562 13.65820312 C10.76721939 19.10778061 10.76721939 19.10778061 8.5 21.375 C5.62373171 21.60007384 2.87546976 21.69930406 0 21.6875 C-0.78503906 21.70361328 -1.57007813 21.71972656 -2.37890625 21.73632812 C-4.65625 21.73828125 -4.65625 21.73828125 -8.5 21.375 C-10.90975706 17.76036441 -10.83239432 15.0528074 -10.8125 10.875 C-10.83666992 9.85986328 -10.83666992 9.85986328 -10.86132812 8.82421875 C-10.86404478 6.06953058 -10.77238501 3.87926668 -9.44921875 1.4296875 C-6.40961227 -0.21498935 -3.36531143 -0.05769105 0 0 Z " fill="#156571" transform="translate(419.5,34.625)"/>
<path d="M0 0 C1.09924805 0.00483398 1.09924805 0.00483398 2.22070312 0.00976562 C2.94966797 -0.00634766 3.67863281 -0.02246094 4.4296875 -0.0390625 C7.33177164 -0.04172252 9.68565607 -0.00538345 12.26367188 1.40820312 C13.83554646 4.35923204 13.6790842 6.94315456 13.65820312 10.25976562 C13.6659375 11.48566406 13.67367188 12.7115625 13.68164062 13.97460938 C13.07760278 19.04971169 13.07760278 19.04971169 10.28320312 21.32226562 C7.62237633 21.67584396 5.4274653 21.79296273 2.78320312 21.69726562 C1.76806641 21.69533203 1.76806641 21.69533203 0.73242188 21.69335938 C-2.93699194 21.62822185 -4.59475587 21.4036263 -7.71679688 19.32226562 C-7.99250294 16.40511761 -8.08905298 13.73358302 -8.02929688 10.82226562 C-8.03251953 10.03722656 -8.03574219 9.2521875 -8.0390625 8.44335938 C-7.97378278 1.52370867 -7.0029164 0.07073653 0 0 Z " fill="#156671" transform="translate(446.716796875,64.677734375)"/>
<path d="M0 0 C6.93 0 13.86 0 21 0 C21 6.6 21 13.2 21 20 C14.07 20 7.14 20 0 20 C0 13.4 0 6.8 0 0 Z " fill="#1F7E83" transform="translate(409,95)"/>
<path d="M0 0 C3.279375 -0.020625 6.55875 -0.04125 9.9375 -0.0625 C10.97253662 -0.071604 12.00757324 -0.08070801 13.07397461 -0.09008789 C14.28839233 -0.09383423 14.28839233 -0.09383423 15.52734375 -0.09765625 C16.77632446 -0.10551147 16.77632446 -0.10551147 18.05053711 -0.11352539 C20 0 20 0 21 1 C21.0983721 2.33043625 21.13078592 3.66593344 21.1328125 5 C21.13474609 6.2065625 21.13474609 6.2065625 21.13671875 7.4375 C21.13285156 8.283125 21.12898438 9.12875 21.125 10 C21.13080078 11.2684375 21.13080078 11.2684375 21.13671875 12.5625 C21.13542969 13.366875 21.13414062 14.17125 21.1328125 15 C21.13168457 15.7425 21.13055664 16.485 21.12939453 17.25 C21 19 21 19 20 20 C18.5112814 20.08669432 17.018555 20.10703494 15.52734375 20.09765625 C14.71773193 20.09515869 13.90812012 20.09266113 13.07397461 20.09008789 C12.03893799 20.08098389 11.00390137 20.07187988 9.9375 20.0625 C6.658125 20.041875 3.37875 20.02125 0 20 C0 13.4 0 6.8 0 0 Z " fill="#197079" transform="translate(439,95)"/>
<path d="M0 0 C1.39412109 0.00193359 1.39412109 0.00193359 2.81640625 0.00390625 C5.85092682 0.50589102 7.23547719 1.31536917 9.4375 3.4375 C10.38801172 6.28903516 10.66406679 8.33649741 10.75 11.3125 C10.78738281 12.15554687 10.82476562 12.99859375 10.86328125 13.8671875 C10.27337569 17.42826878 9.07253345 18.99222346 6.4375 21.4375 C3.34375 22.06640625 3.34375 22.06640625 -0.0625 22 C-1.1865625 22.00128906 -2.310625 22.00257812 -3.46875 22.00390625 C-6.5625 21.4375 -6.5625 21.4375 -8.93359375 19.80859375 C-11.06076007 16.71221496 -11.1292842 14.67332057 -11.125 10.9375 C-11.14691406 9.8134375 -11.16882813 8.689375 -11.19140625 7.53125 C-10.5625 4.4375 -10.5625 4.4375 -8.375 2.05859375 C-5.26714422 0.26726021 -3.55469298 -0.0741591 0 0 Z " fill="#115D6A" transform="translate(449.5625,34.5625)"/>
<path d="M0 0 C0.804375 -0.00128906 1.60875 -0.00257812 2.4375 -0.00390625 C3.283125 -0.00003906 4.12875 0.00382812 5 0.0078125 C6.2684375 0.00201172 6.2684375 0.00201172 7.5625 -0.00390625 C8.366875 -0.00261719 9.17125 -0.00132813 10 0 C10.7425 0.00112793 11.485 0.00225586 12.25 0.00341797 C14 0.1328125 14 0.1328125 15 1.1328125 C15.12663091 3.95697632 15.18520548 6.74576043 15.1875 9.5703125 C15.19974609 10.35986328 15.21199219 11.14941406 15.22460938 11.96289062 C15.22987279 14.02088685 15.12206285 16.07843259 15 18.1328125 C13 20.1328125 13 20.1328125 9.12109375 20.36328125 C7.55983524 20.35928826 5.99857586 20.34452511 4.4375 20.3203125 C3.64408203 20.31966797 2.85066406 20.31902344 2.03320312 20.31835938 C-3.85974478 20.27306772 -3.85974478 20.27306772 -5 19.1328125 C-5.0983721 17.80237625 -5.13078592 16.46687906 -5.1328125 15.1328125 C-5.13410156 14.3284375 -5.13539063 13.5240625 -5.13671875 12.6953125 C-5.13285156 11.8496875 -5.12898438 11.0040625 -5.125 10.1328125 C-5.12886719 9.2871875 -5.13273437 8.4415625 -5.13671875 7.5703125 C-5.13542969 6.7659375 -5.13414062 5.9615625 -5.1328125 5.1328125 C-5.13168457 4.3903125 -5.13055664 3.6478125 -5.12939453 2.8828125 C-4.87704063 -0.53015494 -2.94665813 0.00447626 0 0 Z " fill="#156671" transform="translate(474,94.8671875)"/>
<path d="M0 0 C0.67675781 -0.01546875 1.35351562 -0.0309375 2.05078125 -0.046875 C5.15917707 -0.02235117 7.0411978 0.10937323 9.4453125 2.15625 C10.76282036 5.08404525 10.89905072 7.29323715 10.875 10.5 C10.88273438 11.53125 10.89046875 12.5625 10.8984375 13.625 C10.43899608 16.94018513 10.03473711 18.30219114 7.5 20.5 C4.28515625 21.03125 4.28515625 21.03125 0.5625 21 C-1.27634766 21.01546875 -1.27634766 21.01546875 -3.15234375 21.03125 C-6.5 20.5 -6.5 20.5 -8.9140625 18.84375 C-10.92382518 15.87365737 -11.00432834 14.06417835 -10.9375 10.5 C-10.93621094 9.46875 -10.93492187 8.4375 -10.93359375 7.375 C-9.89088212 0.46116431 -6.38547609 -0.14595374 0 0 Z " fill="#115D6B" transform="translate(508.5,94.5)"/>
<path d="M0 0 C1.22847656 -0.0103125 2.45695312 -0.020625 3.72265625 -0.03125 C6.9375 0.5 6.9375 0.5 8.84765625 2.15625 C10.21068881 5.08750281 10.33670774 7.27230157 10.3125 10.5 C10.32023437 11.53125 10.32796875 12.5625 10.3359375 13.625 C9.87382487 16.95945976 9.50983397 18.3099004 6.9375 20.5 C4.26730776 20.90894836 2.0964977 21.06077709 -0.5625 21 C-1.57763672 21.02320313 -1.57763672 21.02320313 -2.61328125 21.046875 C-5.72055551 21.02236002 -7.6024199 20.89250295 -10.00390625 18.84375 C-11.32290812 15.92345067 -11.49599799 13.7016081 -11.5 10.5 C-11.51933594 9.46875 -11.53867187 8.4375 -11.55859375 7.375 C-11.0625 4.5 -11.0625 4.5 -9.4765625 2.15625 C-6.21006207 -0.08484414 -3.93366726 -0.03309079 0 0 Z " fill="#115D6A" transform="translate(420.0625,5.5)"/>
<path d="M0 0 C1.13308594 -0.00773437 2.26617187 -0.01546875 3.43359375 -0.0234375 C6.89139463 0.41688171 8.3110774 0.71027277 10.5625 3.375 C11.05859375 6.625 11.05859375 6.625 11 10.375 C10.99871094 11.6125 10.99742187 12.85 10.99609375 14.125 C10.5625 17.375 10.5625 17.375 9.16015625 19.25 C6.07983361 21.41902914 3.9256882 21.56486829 0.1875 21.625 C-0.76898438 21.65078125 -1.72546875 21.6765625 -2.7109375 21.703125 C-5.99466023 21.3079492 -7.27426814 20.89624926 -9.4375 18.375 C-9.81871721 15.70948124 -9.95328456 13.52657379 -9.875 10.875 C-9.88208984 10.19824219 -9.88917969 9.52148438 -9.89648438 8.82421875 C-9.86078108 6.03936165 -9.72158312 3.86622706 -8.3125 1.4296875 C-5.51916069 -0.14156586 -3.18186888 -0.02166994 0 0 Z " fill="#115D6A" transform="translate(478.4375,64.625)"/>
<path d="M0 0 C2.87029869 1.79393668 4.49131638 2.98263276 6 6 C6.55112923 10.59876684 6.61753151 13.97787887 4.1875 18 C1.36027586 20.58489064 -0.52011594 20.95472792 -4.3125 21.3125 C-8.67349359 20.94292427 -10.66572748 19.77856044 -14 17 C-15.23671367 13.28985899 -15.56368603 9.85561242 -15 6 C-11.03690229 -0.20885308 -7.02452124 -0.90991208 0 0 Z " fill="#0F5766" transform="translate(513,65)"/>
<path d="M0 0 C2.87305972 1.40460697 4.74510999 2.74510999 7 5 C7.79592241 10.20281912 7.81726405 14.61065111 5.125 19.1875 C0.69075362 21.7593629 -2.99768685 21.97586109 -8 21 C-11.125 19.1875 -11.125 19.1875 -13 16 C-13.85243749 11.59243562 -14.3012634 7.13975354 -11.890625 3.17578125 C-8.21920387 -0.26864341 -4.81044929 -0.69970172 0 0 Z " fill="#0F5766" transform="translate(482,35)"/>
<path d="M0 0 C2.625 1.4375 2.625 1.4375 4 4 C5.15428553 8.38792228 5.56247011 11.74113831 3.6875 15.9375 C0.41566265 19.93641232 0.41566265 19.93641232 -2.42578125 20.37109375 C-7.08104577 20.47818373 -10.10829397 20.52453296 -14.1875 18.125 C-16.7593629 13.69075362 -16.97586109 10.00231315 -16 5 C-12.35169921 -1.29017378 -6.58193235 -1.05473184 0 0 Z " fill="#0F5766" transform="translate(455,6)"/>
<path d="M0 0 C3.5420773 3.09931764 4.84372778 4.88656044 5.5 9.5625 C4.86922578 13.89907279 3.80650145 16.64512391 0.25 19.3125 C-4.06801237 20.63189267 -7.68329318 20.58520303 -11.8125 18.75 C-14.16257379 16.86994097 -14.91130383 15.76399574 -16 13 C-16.23125754 8.62152387 -15.77437401 5.03249869 -13.125 1.5 C-8.92763339 -1.46284702 -4.79887119 -1.50314837 0 0 Z " fill="#0D5363" transform="translate(514,36)"/>
<path d="M0 0 C2.87029869 1.79393668 4.49131638 2.98263276 6 6 C6.49170132 10.91701315 6.48320696 13.09801367 4.125 17.5 C1.64526085 20.08601369 -0.46769926 20.49243265 -4 20.6875 C-7.53851878 20.43927555 -9.00351401 19.99789159 -12.125 18.125 C-14.7743543 13.7094095 -14.9961698 10.02201303 -14 5 C-10.54419072 -0.57388593 -6.10736255 -1.22811095 0 0 Z " fill="#0D5363" transform="translate(483,6)"/>
</svg>
