<?xml version="1.0" encoding="UTF-8" standalone="no"?>
<!DOCTYPE svg PUBLIC "-//W3C//DTD SVG 1.1//EN"
 "http://www.w3.org/Graphics/SVG/1.1/DTD/svg11.dtd">
<!-- Generated by graphviz version 2.43.0 (0)
 -->
<!-- Title: %3 Pages: 1 -->
<svg width="1222pt" height="260pt"
 viewBox="0.00 0.00 1222.29 260.00" xmlns="http://www.w3.org/2000/svg" xmlns:xlink="http://www.w3.org/1999/xlink">
<g id="graph0" class="graph" transform="scale(1 1) rotate(0) translate(4 256)">
<title>%3</title>
<polygon fill="white" stroke="transparent" points="-4,4 -4,-256 1218.29,-256 1218.29,4 -4,4"/>
<!-- project -->
<g id="node1" class="node">
<title>project</title>
<ellipse fill="none" stroke="black" cx="224.6" cy="-234" rx="43.59" ry="18"/>
<text text-anchor="middle" x="224.6" y="-230.3" font-family="Times,serif" font-size="14.00">project</text>
</g>
<!-- lottrav -->
<g id="node2" class="node">
<title>lottrav</title>
<ellipse fill="none" stroke="black" cx="259.6" cy="-162" rx="42.49" ry="18"/>
<text text-anchor="middle" x="259.6" y="-158.3" font-family="Times,serif" font-size="14.00">lottrav</text>
</g>
<!-- project&#45;&gt;lottrav -->
<g id="edge1" class="edge">
<title>project&#45;&gt;lottrav</title>
<path fill="none" stroke="black" d="M233.07,-216.05C237.15,-207.89 242.14,-197.91 246.69,-188.82"/>
<polygon fill="black" stroke="black" points="249.86,-190.3 251.2,-179.79 243.6,-187.17 249.86,-190.3"/>
</g>
<!-- task -->
<g id="node3" class="node">
<title>task</title>
<ellipse fill="none" stroke="black" cx="271.6" cy="-90" rx="30.59" ry="18"/>
<text text-anchor="middle" x="271.6" y="-86.3" font-family="Times,serif" font-size="14.00">task</text>
</g>
<!-- project&#45;&gt;task -->
<g id="edge3" class="edge">
<title>project&#45;&gt;task</title>
<path fill="none" stroke="black" d="M215.83,-216.16C207.47,-197.67 197.67,-167.48 208.6,-144 215.46,-129.26 228.66,-117.16 241.21,-108.25"/>
<polygon fill="black" stroke="black" points="243.32,-111.06 249.72,-102.61 239.45,-105.23 243.32,-111.06"/>
</g>
<!-- timesheet -->
<g id="node4" class="node">
<title>timesheet</title>
<ellipse fill="none" stroke="black" cx="165.6" cy="-90" rx="57.39" ry="18"/>
<text text-anchor="middle" x="165.6" y="-86.3" font-family="Times,serif" font-size="14.00">timesheet</text>
</g>
<!-- project&#45;&gt;timesheet -->
<g id="edge4" class="edge">
<title>project&#45;&gt;timesheet</title>
<path fill="none" stroke="black" d="M184.14,-227.07C135.39,-219.01 57.84,-202.91 40.6,-180 30.98,-167.22 31.76,-157.34 40.6,-144 55.25,-121.88 81.18,-108.96 105.64,-101.44"/>
<polygon fill="black" stroke="black" points="106.6,-104.8 115.27,-98.71 104.7,-98.07 106.6,-104.8"/>
</g>
<!-- document -->
<g id="node6" class="node">
<title>document</title>
<ellipse fill="none" stroke="black" cx="452.6" cy="-162" rx="56.59" ry="18"/>
<text text-anchor="middle" x="452.6" y="-158.3" font-family="Times,serif" font-size="14.00">document</text>
</g>
<!-- project&#45;&gt;document -->
<g id="edge2" class="edge">
<title>project&#45;&gt;document</title>
<path fill="none" stroke="black" d="M258.73,-222.52C297.19,-210.71 360.02,-191.42 403.69,-178.02"/>
<polygon fill="black" stroke="black" points="404.72,-181.36 413.25,-175.08 402.66,-174.67 404.72,-181.36"/>
</g>
<!-- reunion -->
<g id="node7" class="node">
<title>reunion</title>
<ellipse fill="none" stroke="black" cx="379.6" cy="-90" rx="46.29" ry="18"/>
<text text-anchor="middle" x="379.6" y="-86.3" font-family="Times,serif" font-size="14.00">reunion</text>
</g>
<!-- project&#45;&gt;reunion -->
<g id="edge5" class="edge">
<title>project&#45;&gt;reunion</title>
<path fill="none" stroke="black" d="M251.48,-219.7C269.35,-210.11 292.72,-196.06 310.6,-180 331.57,-161.17 350.8,-135.32 363.6,-116.33"/>
<polygon fill="black" stroke="black" points="366.59,-118.15 369.18,-107.88 360.75,-114.3 366.59,-118.15"/>
</g>
<!-- persbyproject -->
<g id="node8" class="node">
<title>persbyproject</title>
<ellipse fill="none" stroke="black" cx="568.6" cy="-90" rx="75.29" ry="18"/>
<text text-anchor="middle" x="568.6" y="-86.3" font-family="Times,serif" font-size="14.00">persbyproject</text>
</g>
<!-- project&#45;&gt;persbyproject -->
<g id="edge6" class="edge">
<title>project&#45;&gt;persbyproject</title>
<path fill="none" stroke="black" d="M255.31,-221.03C279.03,-211.28 312.3,-196.46 339.6,-180 362.13,-166.41 363.12,-155.88 386.6,-144 422.83,-125.66 466.42,-112.69 501.86,-104.17"/>
<polygon fill="black" stroke="black" points="502.68,-107.57 511.62,-101.88 501.09,-100.75 502.68,-107.57"/>
</g>
<!-- risk -->
<g id="node11" class="node">
<title>risk</title>
<ellipse fill="none" stroke="black" cx="28.6" cy="-90" rx="28.7" ry="18"/>
<text text-anchor="middle" x="28.6" y="-86.3" font-family="Times,serif" font-size="14.00">risk</text>
</g>
<!-- project&#45;&gt;risk -->
<g id="edge7" class="edge">
<title>project&#45;&gt;risk</title>
<path fill="none" stroke="black" d="M183.58,-227.67C132.12,-220.04 48.32,-204.21 29.6,-180 16.12,-162.57 17.34,-136.94 21.08,-117.66"/>
<polygon fill="black" stroke="black" points="24.54,-118.22 23.33,-107.69 17.71,-116.68 24.54,-118.22"/>
</g>
<!-- lotbudget -->
<g id="node12" class="node">
<title>lotbudget</title>
<ellipse fill="none" stroke="black" cx="105.6" cy="-162" rx="55.79" ry="18"/>
<text text-anchor="middle" x="105.6" y="-158.3" font-family="Times,serif" font-size="14.00">lotbudget</text>
</g>
<!-- project&#45;&gt;lotbudget -->
<g id="edge8" class="edge">
<title>project&#45;&gt;lotbudget</title>
<path fill="none" stroke="black" d="M200.52,-218.83C183.16,-208.63 159.49,-194.7 140.12,-183.31"/>
<polygon fill="black" stroke="black" points="141.68,-180.17 131.29,-178.11 138.14,-186.2 141.68,-180.17"/>
</g>
<!-- lottrav&#45;&gt;task -->
<g id="edge9" class="edge">
<title>lottrav&#45;&gt;task</title>
<path fill="none" stroke="black" d="M262.56,-143.7C263.89,-135.98 265.48,-126.71 266.95,-118.11"/>
<polygon fill="black" stroke="black" points="270.43,-118.55 268.67,-108.1 263.53,-117.37 270.43,-118.55"/>
</g>
<!-- lottrav&#45;&gt;timesheet -->
<g id="edge10" class="edge">
<title>lottrav&#45;&gt;timesheet</title>
<path fill="none" stroke="black" d="M239.2,-145.81C226.29,-136.2 209.39,-123.61 195.04,-112.92"/>
<polygon fill="black" stroke="black" points="197.04,-110.05 186.93,-106.89 192.86,-115.67 197.04,-110.05"/>
</g>
<!-- lottrav&#45;&gt;reunion -->
<g id="edge11" class="edge">
<title>lottrav&#45;&gt;reunion</title>
<path fill="none" stroke="black" d="M283.59,-147C301.51,-136.55 326.21,-122.14 346.07,-110.55"/>
<polygon fill="black" stroke="black" points="347.94,-113.52 354.82,-105.45 344.42,-107.47 347.94,-113.52"/>
</g>
<!-- profiles -->
<g id="node5" class="node">
<title>profiles</title>
<ellipse fill="none" stroke="black" cx="613.6" cy="-234" rx="45.49" ry="18"/>
<text text-anchor="middle" x="613.6" y="-230.3" font-family="Times,serif" font-size="14.00">profiles</text>
</g>
<!-- profiles&#45;&gt;lottrav -->
<g id="edge12" class="edge">
<title>profiles&#45;&gt;lottrav</title>
<path fill="none" stroke="black" d="M573.68,-225.11C508.01,-212.12 377.5,-186.31 307.16,-172.4"/>
<polygon fill="black" stroke="black" points="307.72,-168.95 297.23,-170.44 306.36,-175.81 307.72,-168.95"/>
</g>
<!-- profiles&#45;&gt;task -->
<g id="edge13" class="edge">
<title>profiles&#45;&gt;task</title>
<path fill="none" stroke="black" d="M606.82,-216.1C597.6,-195.46 579.04,-161.2 551.6,-144 465.04,-89.76 423.97,-131.67 324.6,-108 318.76,-106.61 312.63,-104.89 306.7,-103.09"/>
<polygon fill="black" stroke="black" points="307.57,-99.69 296.98,-100.01 305.46,-106.37 307.57,-99.69"/>
</g>
<!-- profiles&#45;&gt;timesheet -->
<g id="edge14" class="edge">
<title>profiles&#45;&gt;timesheet</title>
<path fill="none" stroke="black" d="M594.35,-217.57C581.84,-207.29 565.35,-193.28 551.6,-180 535.99,-164.92 537.88,-153.96 518.6,-144 404.38,-85 357.88,-132.08 231.6,-108 226.84,-107.09 221.91,-106.04 216.99,-104.91"/>
<polygon fill="black" stroke="black" points="217.5,-101.43 206.96,-102.51 215.87,-108.24 217.5,-101.43"/>
</g>
<!-- profiles&#45;&gt;document -->
<g id="edge15" class="edge">
<title>profiles&#45;&gt;document</title>
<path fill="none" stroke="black" d="M584.07,-220.16C558.78,-209.17 522.1,-193.22 493.91,-180.96"/>
<polygon fill="black" stroke="black" points="495.27,-177.74 484.7,-176.96 492.48,-184.16 495.27,-177.74"/>
</g>
<!-- profiles&#45;&gt;reunion -->
<g id="edge16" class="edge">
<title>profiles&#45;&gt;reunion</title>
<path fill="none" stroke="black" d="M613.85,-215.72C613.16,-195.68 608.88,-162.97 589.6,-144 578.16,-132.74 488.55,-112.92 430.15,-100.97"/>
<polygon fill="black" stroke="black" points="430.48,-97.47 419.99,-98.91 429.09,-104.33 430.48,-97.47"/>
</g>
<!-- personne -->
<g id="node9" class="node">
<title>personne</title>
<ellipse fill="none" stroke="black" cx="695.6" cy="-162" rx="53.89" ry="18"/>
<text text-anchor="middle" x="695.6" y="-158.3" font-family="Times,serif" font-size="14.00">personne</text>
</g>
<!-- profiles&#45;&gt;personne -->
<g id="edge20" class="edge">
<title>profiles&#45;&gt;personne</title>
<path fill="none" stroke="black" d="M631.8,-217.46C642.79,-208.08 656.99,-195.96 669.2,-185.54"/>
<polygon fill="black" stroke="black" points="671.55,-188.13 676.88,-178.98 667,-182.81 671.55,-188.13"/>
</g>
<!-- config -->
<g id="node15" class="node">
<title>config</title>
<ellipse fill="none" stroke="black" cx="695.6" cy="-18" rx="38.19" ry="18"/>
<text text-anchor="middle" x="695.6" y="-14.3" font-family="Times,serif" font-size="14.00">config</text>
</g>
<!-- profiles&#45;&gt;config -->
<g id="edge25" class="edge">
<title>profiles&#45;&gt;config</title>
<path fill="none" stroke="black" d="M646.44,-221.49C653.36,-219.4 660.67,-217.43 667.6,-216 745.26,-200.01 969.43,-238.83 1022.6,-180 1108.81,-84.6 852.15,-39.21 742.6,-24.55"/>
<polygon fill="black" stroke="black" points="742.84,-21.05 732.47,-23.22 741.94,-27.99 742.84,-21.05"/>
</g>
<!-- notification -->
<g id="node19" class="node">
<title>notification</title>
<ellipse fill="none" stroke="black" cx="830.6" cy="-162" rx="63.09" ry="18"/>
<text text-anchor="middle" x="830.6" y="-158.3" font-family="Times,serif" font-size="14.00">notification</text>
</g>
<!-- profiles&#45;&gt;notification -->
<g id="edge17" class="edge">
<title>profiles&#45;&gt;notification</title>
<path fill="none" stroke="black" d="M647.98,-221.91C683.75,-210.37 740.11,-192.19 780.76,-179.08"/>
<polygon fill="black" stroke="black" points="782.03,-182.34 790.48,-175.94 779.88,-175.68 782.03,-182.34"/>
</g>
<!-- message -->
<g id="node20" class="node">
<title>message</title>
<ellipse fill="none" stroke="black" cx="962.6" cy="-162" rx="51.19" ry="18"/>
<text text-anchor="middle" x="962.6" y="-158.3" font-family="Times,serif" font-size="14.00">message</text>
</g>
<!-- profiles&#45;&gt;message -->
<g id="edge18" class="edge">
<title>profiles&#45;&gt;message</title>
<path fill="none" stroke="black" d="M646.79,-221.67C653.62,-219.59 660.8,-217.58 667.6,-216 770.51,-192.07 799.35,-202.45 902.6,-180 906.7,-179.11 910.94,-178.09 915.18,-177.02"/>
<polygon fill="black" stroke="black" points="916.24,-180.36 925.01,-174.42 914.45,-173.59 916.24,-180.36"/>
</g>
<!-- reunion&#45;&gt;config -->
<g id="edge23" class="edge">
<title>reunion&#45;&gt;config</title>
<path fill="none" stroke="black" d="M418.66,-80.35C477.79,-67.25 589.66,-42.47 651.59,-28.75"/>
<polygon fill="black" stroke="black" points="652.44,-32.15 661.45,-26.57 650.93,-25.31 652.44,-32.15"/>
</g>
<!-- personne&#45;&gt;persbyproject -->
<g id="edge19" class="edge">
<title>personne&#45;&gt;persbyproject</title>
<path fill="none" stroke="black" d="M668.97,-146.33C650.81,-136.31 626.48,-122.9 606.33,-111.8"/>
<polygon fill="black" stroke="black" points="607.84,-108.64 597.4,-106.87 604.46,-114.77 607.84,-108.64"/>
</g>
<!-- personne&#45;&gt;config -->
<g id="edge24" class="edge">
<title>personne&#45;&gt;config</title>
<path fill="none" stroke="black" d="M695.6,-143.87C695.6,-119.67 695.6,-75.21 695.6,-46.39"/>
<polygon fill="black" stroke="black" points="699.1,-46.19 695.6,-36.19 692.1,-46.19 699.1,-46.19"/>
</g>
<!-- societe -->
<g id="node10" class="node">
<title>societe</title>
<ellipse fill="none" stroke="black" cx="720.6" cy="-234" rx="43.59" ry="18"/>
<text text-anchor="middle" x="720.6" y="-230.3" font-family="Times,serif" font-size="14.00">societe</text>
</g>
<!-- risk&#45;&gt;config -->
<g id="edge26" class="edge">
<title>risk&#45;&gt;config</title>
<path fill="none" stroke="black" d="M54.38,-81.87C67.77,-78.4 84.46,-74.47 99.6,-72 301.35,-39.06 545.1,-25.44 647.07,-20.91"/>
<polygon fill="black" stroke="black" points="647.52,-24.39 657.35,-20.46 647.21,-17.4 647.52,-24.39"/>
</g>
<!-- bibltech -->
<g id="node13" class="node">
<title>bibltech</title>
<ellipse fill="none" stroke="black" cx="1117.6" cy="-90" rx="48.19" ry="18"/>
<text text-anchor="middle" x="1117.6" y="-86.3" font-family="Times,serif" font-size="14.00">bibltech</text>
</g>
<!-- critged -->
<g id="node14" class="node">
<title>critged</title>
<ellipse fill="none" stroke="black" cx="1117.6" cy="-18" rx="44.39" ry="18"/>
<text text-anchor="middle" x="1117.6" y="-14.3" font-family="Times,serif" font-size="14.00">critged</text>
</g>
<!-- bibltech&#45;&gt;critged -->
<g id="edge21" class="edge">
<title>bibltech&#45;&gt;critged</title>
<path fill="none" stroke="black" d="M1117.6,-71.7C1117.6,-63.98 1117.6,-54.71 1117.6,-46.11"/>
<polygon fill="black" stroke="black" points="1121.1,-46.1 1117.6,-36.1 1114.1,-46.1 1121.1,-46.1"/>
</g>
<!-- bibltech&#45;&gt;config -->
<g id="edge22" class="edge">
<title>bibltech&#45;&gt;config</title>
<path fill="none" stroke="black" d="M1081.06,-78.19C1072.74,-75.95 1063.9,-73.74 1055.6,-72 944.45,-48.67 811.88,-31.97 742.78,-24.09"/>
<polygon fill="black" stroke="black" points="742.98,-20.59 732.65,-22.95 742.2,-27.55 742.98,-20.59"/>
</g>
<!-- filesystemitem -->
<g id="node16" class="node">
<title>filesystemitem</title>
<ellipse fill="none" stroke="black" cx="861.6" cy="-234" rx="79.09" ry="18"/>
<text text-anchor="middle" x="861.6" y="-230.3" font-family="Times,serif" font-size="14.00">filesystemitem</text>
</g>
<!-- filesystemitem&#45;&gt;filesystemitem -->
<g id="edge27" class="edge">
<title>filesystemitem&#45;&gt;filesystemitem</title>
<path fill="none" stroke="black" d="M915.13,-247.31C938.65,-248.49 958.89,-244.05 958.89,-234 958.89,-225.44 944.21,-220.95 925.33,-220.53"/>
<polygon fill="black" stroke="black" points="925.08,-217.04 915.13,-220.69 925.18,-224.03 925.08,-217.04"/>
</g>
<!-- todolist -->
<g id="node17" class="node">
<title>todolist</title>
<ellipse fill="none" stroke="black" cx="1022.6" cy="-234" rx="46.29" ry="18"/>
<text text-anchor="middle" x="1022.6" y="-230.3" font-family="Times,serif" font-size="14.00">todolist</text>
</g>
<!-- eltfinancier -->
<g id="node18" class="node">
<title>eltfinancier</title>
<ellipse fill="none" stroke="black" cx="1150.6" cy="-234" rx="63.89" ry="18"/>
<text text-anchor="middle" x="1150.6" y="-230.3" font-family="Times,serif" font-size="14.00">eltfinancier</text>
</g>
</g>
</svg>
